<?xml version="1.0" encoding="iso-8859-1"?>
<!-- Generator: Adobe Illustrator 19.0.0, SVG Export Plug-In . SVG Version: 6.00 Build 0)  -->
<svg version="1.1" id="Capa_1" xmlns="http://www.w3.org/2000/svg" xmlns:xlink="http://www.w3.org/1999/xlink" x="0px" y="0px"
	 viewBox="0 0 508.963 508.963" style="enable-background:new 0 0 508.963 508.963;" xml:space="preserve">
<g>
	<g>
		<g>
			<path style="fill:#010002;" d="M248.777,293.557l29.595-29.66l-30.242-30.156l-29.552,29.574
				c-12.36-8.413-26.51-14.237-41.718-17.17v-41.912h-42.71v41.934c-15.164,2.955-29.293,8.758-41.675,17.17l-29.638-29.574
				l-30.156,30.156l29.509,29.66c-8.305,12.295-14.172,26.424-17.127,41.718H3.151v42.689h41.912
				c2.955,15.164,8.822,29.293,17.127,41.718l-29.509,29.574l30.156,30.156l29.617-29.574c12.36,8.369,26.51,14.237,41.696,17.192
				v41.912h42.689v-41.955c15.207-2.955,29.315-8.801,41.718-17.192l29.552,29.53l30.242-30.134l-29.595-29.574
				c8.413-12.382,14.215-26.51,17.127-41.739h41.998v-42.645h-41.977C262.992,319.981,257.19,305.917,248.777,293.557z
				 M155.527,403.179c-25.669,0-46.593-20.859-46.593-46.593s20.924-46.571,46.593-46.571c25.712,0,46.528,20.837,46.528,46.571
				C202.055,382.321,181.26,403.179,155.527,403.179z"/>
			<path style="fill:#010002;" d="M495.633,334.175l0.302-0.216L288.208,125.132l-0.324-98.255L187.365,0l-10.699,10.721
				l53.452,53.323l-52.072,52.18l-53.409-53.366l-10.742,10.656l26.963,100.412l95.602,0.324l-0.626,0.518L444.92,384.952
				l0.28-0.259c13.935,13.633,36.411,13.633,50.13-0.237C509.244,370.629,509.266,348.26,495.633,334.175z M482.13,371.19
				c-6.212,6.191-16.243,6.212-22.412,0c-6.148-6.191-6.212-16.157-0.065-22.369c6.234-6.169,16.264-6.169,22.477-0.022
				C488.277,354.947,488.342,364.956,482.13,371.19z"/>
		</g>
	</g>
	<g>
	</g>
	<g>
	</g>
	<g>
	</g>
	<g>
	</g>
	<g>
	</g>
	<g>
	</g>
	<g>
	</g>
	<g>
	</g>
	<g>
	</g>
	<g>
	</g>
	<g>
	</g>
	<g>
	</g>
	<g>
	</g>
	<g>
	</g>
	<g>
	</g>
</g>
<g>
</g>
<g>
</g>
<g>
</g>
<g>
</g>
<g>
</g>
<g>
</g>
<g>
</g>
<g>
</g>
<g>
</g>
<g>
</g>
<g>
</g>
<g>
</g>
<g>
</g>
<g>
</g>
<g>
</g>
</svg>
