<?xml version="1.0" encoding="UTF-8"?>
<!-- Generator: Adobe Illustrator 15.0.2, SVG Export Plug-In . SVG Version: 6.00 Build 0)  -->
<!DOCTYPE svg PUBLIC "-//W3C//DTD SVG 1.1//EN" "http://www.w3.org/Graphics/SVG/1.1/DTD/svg11.dtd">
<svg xmlns="http://www.w3.org/2000/svg" xmlns:xlink="http://www.w3.org/1999/xlink" version="1.1" id="Layer_1" x="0px" y="0px" width="512px" height="476.37px" viewBox="-0.002 0 512 476.37" enable-background="new -0.002 0 512 476.37" xml:space="preserve">
<g>
	<path d="M255.993,299.963c82.703,0,149.981-67.279,149.981-149.987C405.975,67.284,338.696,0,255.993,0   c-82.702,0-149.979,67.284-149.979,149.976C106.015,232.683,173.291,299.963,255.993,299.963z M255.993,45.109   c57.824,0,104.872,47.042,104.872,104.872c0,57.835-47.048,104.877-104.872,104.877s-104.874-47.042-104.874-104.877   C151.124,92.151,198.175,45.109,255.993,45.109z" fill="#000000"/>
	<path d="M325.349,313.729c-7.391-2.346-15.474-0.738-21.388,4.283l-47.968,40.556l-47.962-40.55   c-5.914-5.021-14.011-6.63-21.387-4.284C155.479,323.619-0.002,376.85-0.002,453.815c0,12.455,10.099,22.555,22.555,22.555h466.89   c12.456,0,22.556-10.1,22.556-22.555C511.998,376.85,356.516,323.619,325.349,313.729z M57.315,431.26   c24.776-25.495,82.725-53.799,131.251-70.638l52.862,44.713c8.403,7.125,20.727,7.125,29.13,0l52.862-44.713   c48.523,16.839,106.485,45.143,131.254,70.638H57.315z" fill="#000000"/>
</g>
</svg>
